<?xml version="1.0" encoding="iso-8859-1"?>
<!-- Generator: Adobe Illustrator 19.0.0, SVG Export Plug-In . SVG Version: 6.00 Build 0)  -->
<svg xmlns="http://www.w3.org/2000/svg" xmlns:xlink="http://www.w3.org/1999/xlink" version="1.1" id="Capa_1" x="0px" y="0px" viewBox="0 0 507.122 507.122" style="enable-background:new 0 0 507.122 507.122;" xml:space="preserve" width="512px" height="512px">
<g>
	<path d="M504.941,149.436c-9.614-23.209-47.261-28.763-97.339-22.626c-38.089-46.259-94.069-72.749-154.041-72.749   c-110.005,0-199.5,89.495-199.5,199.5c0,5.536,0.229,11.125,0.682,16.611c0.072,0.873,0.298,1.695,0.637,2.451   C11.692,306.819-6.71,336.22,2.181,357.686c5.026,12.134,20.371,24.897,62.678,24.897c9.977,0,21.48-0.722,34.675-2.318   c10.041,12.219,21.522,23.276,34.197,32.812c34.768,26.158,76.204,39.984,119.831,39.984c110.005,0,199.5-89.495,199.5-199.5   c0-6.465-0.334-12.922-0.961-19.345C495.529,200.141,513.809,170.845,504.941,149.436z M253.561,69.061   c52.374,0,101.46,21.844,136.43,60.302c-50.496,8.361-110.76,26.82-167.099,50.156c-59.375,24.594-113.234,53.629-153.624,82.69   c-0.133-2.881-0.207-5.772-0.207-8.648C69.061,151.828,151.828,69.061,253.561,69.061z M253.561,438.061   c-40.347,0-78.666-12.784-110.813-36.97c-29.792-22.415-52.452-53.895-64.218-89.048c6.451-5.456,15.336-12.093,27.579-20.051   c34.319-22.308,82.267-46.625,135.008-68.472c52.742-21.847,103.84-38.555,143.882-47.048c14.272-3.027,25.241-4.617,33.658-5.321   c12.864,25.696,19.403,53.405,19.403,82.411C438.061,355.295,355.294,438.061,253.561,438.061z M66.713,323.58   c1.603,4.259,3.357,8.461,5.251,12.6c-8.892-0.756-10.458-3.037-10.469-3.063C61.475,333.069,61.199,330.193,66.713,323.58z    M440.407,183.56c-1.593-4.266-3.347-8.468-5.23-12.611c8.589,0.775,10.43,3.008,10.45,3.056   C445.64,174.036,446.103,176.795,440.407,183.56z M449.653,216.928c-1.074-5.763-2.397-11.475-3.969-17.115   c12.869-12.541,17.389-22.885,13.801-31.547c-4.99-12.046-22.586-12.419-28.369-12.542c-12.432-0.266-28.985,1.781-49.229,6.075   c-40.913,8.678-92.944,25.676-146.51,47.863c-53.565,22.188-102.376,46.96-137.443,69.754   c-13.211,8.588-23.983,16.587-32.17,23.875c-0.671,0.437-1.261,0.97-1.75,1.581c-1.879,1.728-3.61,3.416-5.185,5.059   c-4.002,4.175-16.182,16.882-11.192,28.928c5.14,12.409,23.755,12.524,29.872,12.562c0.016,0,0.031,0,0.047,0   c0.701,0,1.378-0.103,2.022-0.284c2.926,5.193,6.091,10.253,9.467,15.171c-40.127,3.75-67.692-1.532-73.006-14.361   c-3.386-8.175,2.286-19.174,7.64-26.961c8.444-12.28,22.958-26.582,41.974-41.36c40.406-31.4,98.286-63.451,162.979-90.248   c64.693-26.797,128.284-45.061,179.058-51.429c23.896-2.997,44.272-3.146,58.926-0.434c9.292,1.72,21.081,5.487,24.467,13.662   c3.393,8.189-2.304,19.212-7.679,27.018C476.216,192.63,464.636,204.524,449.653,216.928z" fill="#83a8aa"/>
	<path d="M413.561,246.061c-4.142,0-7.5,3.358-7.5,7.5c0,5.087-0.253,10.221-0.753,15.256c-0.409,4.122,2.601,7.794,6.723,8.204   c0.251,0.025,0.501,0.037,0.749,0.037c3.809,0,7.071-2.89,7.455-6.76c0.548-5.525,0.826-11.157,0.826-16.737   C421.061,249.419,417.703,246.061,413.561,246.061z" fill="#83a8aa"/>
	<path d="M408.483,294.409c-3.952-1.241-8.162,0.957-9.403,4.908c-9.595,30.545-28.272,56.913-54.012,76.25   c-3.312,2.488-3.979,7.189-1.491,10.501c1.474,1.962,3.724,2.996,6.002,2.996c1.568,0,3.149-0.49,4.499-1.504   c28.262-21.232,48.772-50.192,59.313-83.748C414.632,299.86,412.435,295.65,408.483,294.409z" fill="#83a8aa"/>
</g>
<g>
</g>
<g>
</g>
<g>
</g>
<g>
</g>
<g>
</g>
<g>
</g>
<g>
</g>
<g>
</g>
<g>
</g>
<g>
</g>
<g>
</g>
<g>
</g>
<g>
</g>
<g>
</g>
<g>
</g>
</svg>
